<svg xmlns="http://www.w3.org/2000/svg" version="1.1" xmlns:xlink="http://www.w3.org/1999/xlink" xmlns:svgjs="http://svgjs.dev/svgjs" width="1000" height="1000"><style>
    #light-icon {
      display: inline;
    }
    #dark-icon {
      display: none;
    }

    @media (prefers-color-scheme: dark) {
      #light-icon {
        display: none;
      }
      #dark-icon {
        display: inline;
      }
    }
  </style><g id="light-icon"><svg xmlns="http://www.w3.org/2000/svg" version="1.1" xmlns:xlink="http://www.w3.org/1999/xlink" xmlns:svgjs="http://svgjs.dev/svgjs" width="1000" height="1000"><g clip-path="url(#SvgjsClipPath1020)"><rect width="1000" height="1000" fill="#ffffff"></rect><g transform="matrix(6.662859318484675,0,0,6.662859318484675,150,208.3333333333334)"><svg xmlns="http://www.w3.org/2000/svg" version="1.1" xmlns:xlink="http://www.w3.org/1999/xlink" xmlns:svgjs="http://svgjs.dev/svgjs" width="105.06" height="87.55"><svg id="Layer_2" data-name="Layer 2" xmlns="http://www.w3.org/2000/svg" viewBox="0 0 105.06 87.55">
  <defs>
    <style>
      .cls-1 {
        fill: #3758f9;
        stroke: #3758f9;
        stroke-miterlimit: 10;
        stroke-width: .7px;
      }
    </style>
  <clipPath id="SvgjsClipPath1020"><rect width="1000" height="1000" x="0" y="0" rx="200" ry="200"></rect></clipPath></defs>
  <g id="Camada_1" data-name="Camada 1">
    <path class="cls-1" d="M81.53,15.06H4.19c-2.48,0-3.84-1.34-3.84-3.89v-6.97C.35,2.07,2.07.35,4.2.35h96.66c2.13,0,3.85,1.72,3.85,3.85v5.13c0,2.49-1,4.24-2.49,5.86l-62.92,69.02c-2.24,2.37-3.74,2.99-7.35,2.99h-12.33c-2.49,0-2.87-2.62-1.5-4.24L81.53,15.06Z"></path>
  </g>
</svg></svg></g></g></svg></g><g id="dark-icon"><svg xmlns="http://www.w3.org/2000/svg" version="1.1" xmlns:xlink="http://www.w3.org/1999/xlink" xmlns:svgjs="http://svgjs.dev/svgjs" width="1000" height="1000"><g><g transform="matrix(9.518370454978108,0,0,9.518370454978108,0,83.33333333333337)"><svg xmlns="http://www.w3.org/2000/svg" version="1.1" xmlns:xlink="http://www.w3.org/1999/xlink" xmlns:svgjs="http://svgjs.dev/svgjs" width="105.06" height="87.55"><svg id="Layer_2" data-name="Layer 2" xmlns="http://www.w3.org/2000/svg" viewBox="0 0 105.06 87.55">
  <defs>
    <style>
      .cls-1 {
        fill: #3758f9;
        stroke: #3758f9;
        stroke-miterlimit: 10;
        stroke-width: .7px;
      }
    </style>
  </defs>
  <g id="Camada_1" data-name="Camada 1">
    <path class="cls-1" d="M81.53,15.06H4.19c-2.48,0-3.84-1.34-3.84-3.89v-6.97C.35,2.07,2.07.35,4.2.35h96.66c2.13,0,3.85,1.72,3.85,3.85v5.13c0,2.49-1,4.24-2.49,5.86l-62.92,69.02c-2.24,2.37-3.74,2.99-7.35,2.99h-12.33c-2.49,0-2.87-2.62-1.5-4.24L81.53,15.06Z"></path>
  </g>
</svg></svg></g></g></svg></g></svg>